# xmcd
#
# Track frame offsets: 
#        150
#        16837
#        45792
#        67275
#
# Disc length: 1069 seconds
#
# Revision: 0
# Processed by: cddbd v1.5.2PL0 Copyright (c) Steve Scherf et al.
# Submitted via: ExactAudioCopy v1.0b3
#
DISCID=29042b04
DTITLE=Criminal Touch - Techno Computer One
DYEAR=1900
DGENRE=
TTITLE0=Techno Computer One (Radio Edit)
TTITLE1=Techno Computer One (12'' Version)
TTITLE2=Techno Groove I
TTITLE3=Techno Groove II
EXTD=
EXTT0=
EXTT1=
EXTT2=
EXTT3=
PLAYORDER=
